<svg xmlns="http://www.w3.org/2000/svg" xmlns:xlink="http://www.w3.org/1999/xlink" width="200" zoomAndPan="magnify" viewBox="0 0 150 149.999998" height="200" preserveAspectRatio="xMidYMid meet" version="1.0"><defs><clipPath id="f8d8aa214b"><path d="M 0 0 L 89.5 0 L 89.5 35.089844 L 0 35.089844 Z M 0 0 " clip-rule="nonzero"/></clipPath><clipPath id="b20ccff991"><path d="M 24.746094 -28.742188 C -10.960938 -28.742188 -39.910156 -14.453125 -39.910156 3.175781 C -39.910156 20.800781 -10.960938 35.089844 24.746094 35.089844 C 60.453125 35.089844 89.398438 20.800781 89.398438 3.175781 C 89.398438 -14.453125 60.453125 -28.742188 24.746094 -28.742188 Z M 24.746094 -28.742188 " clip-rule="nonzero"/></clipPath><clipPath id="2721e57b3b"><path d="M 0 0 L 89.5 0 L 89.5 35.089844 L 0 35.089844 Z M 0 0 " clip-rule="nonzero"/></clipPath><clipPath id="6f8c1834dc"><path d="M 24.746094 -28.742188 C -10.960938 -28.742188 -39.910156 -14.453125 -39.910156 3.175781 C -39.910156 20.800781 -10.960938 35.089844 24.746094 35.089844 C 60.453125 35.089844 89.398438 20.800781 89.398438 3.175781 C 89.398438 -14.453125 60.453125 -28.742188 24.746094 -28.742188 Z M 24.746094 -28.742188 " clip-rule="nonzero"/></clipPath><clipPath id="4adb748982"><rect x="0" width="90" y="0" height="36"/></clipPath><clipPath id="317a480735"><path d="M 0 15 L 28.800781 15 L 28.800781 78.832031 L 0 78.832031 Z M 0 15 " clip-rule="nonzero"/></clipPath><clipPath id="34b578341b"><path d="M -35.957031 15 C -71.664062 15 -100.609375 29.289062 -100.609375 46.917969 C -100.609375 64.542969 -71.664062 78.832031 -35.957031 78.832031 C -0.25 78.832031 28.695312 64.542969 28.695312 46.917969 C 28.695312 29.289062 -0.25 15 -35.957031 15 Z M -35.957031 15 " clip-rule="nonzero"/></clipPath><clipPath id="83c9b29197"><path d="M 0 0 L 28.800781 0 L 28.800781 63.832031 L 0 63.832031 Z M 0 0 " clip-rule="nonzero"/></clipPath><clipPath id="47ad6fa165"><path d="M -35.957031 0 C -71.664062 0 -100.609375 14.289062 -100.609375 31.917969 C -100.609375 49.542969 -71.664062 63.832031 -35.957031 63.832031 C -0.25 63.832031 28.695312 49.542969 28.695312 31.917969 C 28.695312 14.289062 -0.25 0 -35.957031 0 Z M -35.957031 0 " clip-rule="nonzero"/></clipPath><clipPath id="ca4811cf51"><rect x="0" width="29" y="0" height="64"/></clipPath><clipPath id="0f663f3bd7"><path d="M 0 122.96875 L 71.9375 122.96875 L 71.9375 150 L 0 150 Z M 0 122.96875 " clip-rule="nonzero"/></clipPath><clipPath id="081d48981d"><path d="M 7.183594 122.96875 C -28.523438 122.96875 -57.472656 137.257812 -57.472656 154.882812 C -57.472656 172.511719 -28.523438 186.800781 7.183594 186.800781 C 42.890625 186.800781 71.835938 172.511719 71.835938 154.882812 C 71.835938 137.257812 42.890625 122.96875 7.183594 122.96875 Z M 7.183594 122.96875 " clip-rule="nonzero"/></clipPath><clipPath id="b4d2905f21"><path d="M 0 0.96875 L 71.9375 0.96875 L 71.9375 28 L 0 28 Z M 0 0.96875 " clip-rule="nonzero"/></clipPath><clipPath id="5e50a9d725"><path d="M 7.183594 0.96875 C -28.523438 0.96875 -57.472656 15.257812 -57.472656 32.882812 C -57.472656 50.511719 -28.523438 64.800781 7.183594 64.800781 C 42.890625 64.800781 71.835938 50.511719 71.835938 32.882812 C 71.835938 15.257812 42.890625 0.96875 7.183594 0.96875 Z M 7.183594 0.96875 " clip-rule="nonzero"/></clipPath><clipPath id="2dc7c99cc7"><rect x="0" width="72" y="0" height="28"/></clipPath><clipPath id="e254233add"><path d="M 0 35.089844 L 24.964844 35.089844 L 24.964844 150 L 0 150 Z M 0 35.089844 " clip-rule="nonzero"/></clipPath><clipPath id="e5451581c5"><path d="M -35.742188 35.089844 C -69.148438 35.089844 -96.230469 61.90625 -96.230469 94.988281 C -96.230469 128.066406 -69.148438 154.882812 -35.742188 154.882812 C -2.335938 154.882812 24.746094 128.066406 24.746094 94.988281 C 24.746094 61.90625 -2.335938 35.089844 -35.742188 35.089844 Z M -35.742188 35.089844 " clip-rule="nonzero"/></clipPath><clipPath id="cffadc2428"><path d="M 0 0.0898438 L 24.960938 0.0898438 L 24.960938 115 L 0 115 Z M 0 0.0898438 " clip-rule="nonzero"/></clipPath><clipPath id="754b8eaa26"><path d="M -35.742188 0.0898438 C -69.148438 0.0898438 -96.230469 26.90625 -96.230469 59.988281 C -96.230469 93.066406 -69.148438 119.882812 -35.742188 119.882812 C -2.335938 119.882812 24.746094 93.066406 24.746094 59.988281 C 24.746094 26.90625 -2.335938 0.0898438 -35.742188 0.0898438 Z M -35.742188 0.0898438 " clip-rule="nonzero"/></clipPath><clipPath id="777e9e4cd8"><rect x="0" width="25" y="0" height="115"/></clipPath><clipPath id="7422282dbf"><path d="M 76.980469 0 L 150 0 L 150 35.089844 L 76.980469 35.089844 Z M 76.980469 0 " clip-rule="nonzero"/></clipPath><clipPath id="95057456bf"><path d="M 141.636719 -28.742188 C 105.929688 -28.742188 76.980469 -14.453125 76.980469 3.175781 C 76.980469 20.800781 105.929688 35.089844 141.636719 35.089844 C 177.34375 35.089844 206.289062 20.800781 206.289062 3.175781 C 206.289062 -14.453125 177.34375 -28.742188 141.636719 -28.742188 Z M 141.636719 -28.742188 " clip-rule="nonzero"/></clipPath><clipPath id="98344b3980"><path d="M 0.980469 0 L 74 0 L 74 35.089844 L 0.980469 35.089844 Z M 0.980469 0 " clip-rule="nonzero"/></clipPath><clipPath id="cb23f57c69"><path d="M 65.636719 -28.742188 C 29.929688 -28.742188 0.980469 -14.453125 0.980469 3.175781 C 0.980469 20.800781 29.929688 35.089844 65.636719 35.089844 C 101.34375 35.089844 130.289062 20.800781 130.289062 3.175781 C 130.289062 -14.453125 101.34375 -28.742188 65.636719 -28.742188 Z M 65.636719 -28.742188 " clip-rule="nonzero"/></clipPath><clipPath id="1217b6e3bd"><rect x="0" width="74" y="0" height="36"/></clipPath><clipPath id="a4b3b6716e"><path d="M 106.105469 22.238281 L 150 22.238281 L 150 86.070312 L 106.105469 86.070312 Z M 106.105469 22.238281 " clip-rule="nonzero"/></clipPath><clipPath id="4b0c708b2b"><path d="M 170.757812 22.238281 C 135.050781 22.238281 106.105469 36.527344 106.105469 54.152344 C 106.105469 71.78125 135.050781 86.070312 170.757812 86.070312 C 206.464844 86.070312 235.414062 71.78125 235.414062 54.152344 C 235.414062 36.527344 206.464844 22.238281 170.757812 22.238281 Z M 170.757812 22.238281 " clip-rule="nonzero"/></clipPath><clipPath id="1e699a61aa"><path d="M 0.105469 0.238281 L 44 0.238281 L 44 64.070312 L 0.105469 64.070312 Z M 0.105469 0.238281 " clip-rule="nonzero"/></clipPath><clipPath id="7af2a5fc42"><path d="M 64.757812 0.238281 C 29.050781 0.238281 0.105469 14.527344 0.105469 32.152344 C 0.105469 49.78125 29.050781 64.070312 64.757812 64.070312 C 100.464844 64.070312 129.414062 49.78125 129.414062 32.152344 C 129.414062 14.527344 100.464844 0.238281 64.757812 0.238281 Z M 64.757812 0.238281 " clip-rule="nonzero"/></clipPath><clipPath id="4ca5dcd373"><rect x="0" width="44" y="0" height="65"/></clipPath><clipPath id="619b783de0"><path d="M 127.347656 71.167969 L 150 71.167969 L 150 135 L 127.347656 135 Z M 127.347656 71.167969 " clip-rule="nonzero"/></clipPath><clipPath id="41f3db6d0b"><path d="M 192 71.167969 C 156.292969 71.167969 127.347656 85.457031 127.347656 103.082031 C 127.347656 120.710938 156.292969 135 192 135 C 227.707031 135 256.652344 120.710938 256.652344 103.082031 C 256.652344 85.457031 227.707031 71.167969 192 71.167969 Z M 192 71.167969 " clip-rule="nonzero"/></clipPath><clipPath id="d1cccdeb0f"><path d="M 0.347656 0.167969 L 23 0.167969 L 23 64 L 0.347656 64 Z M 0.347656 0.167969 " clip-rule="nonzero"/></clipPath><clipPath id="9c6c213bf3"><path d="M 65 0.167969 C 29.292969 0.167969 0.347656 14.457031 0.347656 32.082031 C 0.347656 49.710938 29.292969 64 65 64 C 100.707031 64 129.652344 49.710938 129.652344 32.082031 C 129.652344 14.457031 100.707031 0.167969 65 0.167969 Z M 65 0.167969 " clip-rule="nonzero"/></clipPath><clipPath id="549f11b2e4"><rect x="0" width="23" y="0" height="64"/></clipPath><clipPath id="ae167c04f2"><path d="M 65.59375 118.082031 L 150 118.082031 L 150 150 L 65.59375 150 Z M 65.59375 118.082031 " clip-rule="nonzero"/></clipPath><clipPath id="78b69832e1"><path d="M 130.25 118.082031 C 94.542969 118.082031 65.59375 132.375 65.59375 150 C 65.59375 167.625 94.542969 181.917969 130.25 181.917969 C 165.957031 181.917969 194.902344 167.625 194.902344 150 C 194.902344 132.375 165.957031 118.082031 130.25 118.082031 Z M 130.25 118.082031 " clip-rule="nonzero"/></clipPath><clipPath id="a016bc49df"><path d="M 0.59375 0.0820312 L 85 0.0820312 L 85 32 L 0.59375 32 Z M 0.59375 0.0820312 " clip-rule="nonzero"/></clipPath><clipPath id="6d891ed398"><path d="M 65.25 0.0820312 C 29.542969 0.0820312 0.59375 14.375 0.59375 32 C 0.59375 49.625 29.542969 63.917969 65.25 63.917969 C 100.957031 63.917969 129.902344 49.625 129.902344 32 C 129.902344 14.375 100.957031 0.0820312 65.25 0.0820312 Z M 65.25 0.0820312 " clip-rule="nonzero"/></clipPath><clipPath id="16753d367e"><rect x="0" width="85" y="0" height="32"/></clipPath></defs><path fill="#904ddb" d="M 75 0 C 73.773438 0 72.546875 0.03125 71.320312 0.0898438 C 70.09375 0.152344 68.871094 0.242188 67.648438 0.359375 C 66.425781 0.480469 65.210938 0.632812 63.996094 0.8125 C 62.78125 0.992188 61.570312 1.203125 60.367188 1.441406 C 59.164062 1.679688 57.96875 1.949219 56.777344 2.246094 C 55.585938 2.546875 54.402344 2.875 53.230469 3.230469 C 52.054688 3.585938 50.890625 3.96875 49.734375 4.382812 C 48.578125 4.796875 47.433594 5.238281 46.296875 5.710938 C 45.164062 6.179688 44.042969 6.675781 42.933594 7.199219 C 41.824219 7.726562 40.726562 8.277344 39.644531 8.855469 C 38.5625 9.433594 37.496094 10.039062 36.441406 10.671875 C 35.390625 11.300781 34.351562 11.957031 33.332031 12.640625 C 32.3125 13.320312 31.308594 14.027344 30.324219 14.757812 C 29.335938 15.492188 28.371094 16.246094 27.421875 17.023438 C 26.472656 17.804688 25.542969 18.605469 24.632812 19.429688 C 23.722656 20.253906 22.835938 21.097656 21.96875 21.96875 C 21.097656 22.835938 20.253906 23.722656 19.429688 24.632812 C 18.605469 25.542969 17.804688 26.472656 17.023438 27.421875 C 16.246094 28.371094 15.492188 29.335938 14.757812 30.324219 C 14.027344 31.308594 13.320312 32.3125 12.640625 33.332031 C 11.957031 34.351562 11.300781 35.390625 10.671875 36.441406 C 10.039062 37.496094 9.433594 38.5625 8.855469 39.644531 C 8.277344 40.726562 7.726562 41.824219 7.199219 42.933594 C 6.675781 44.042969 6.179688 45.164062 5.710938 46.296875 C 5.238281 47.433594 4.796875 48.578125 4.382812 49.734375 C 3.96875 50.890625 3.585938 52.054688 3.230469 53.230469 C 2.875 54.402344 2.546875 55.585938 2.246094 56.777344 C 1.949219 57.96875 1.679688 59.164062 1.441406 60.367188 C 1.203125 61.570312 0.992188 62.78125 0.8125 63.996094 C 0.632812 65.210938 0.480469 66.425781 0.359375 67.648438 C 0.242188 68.871094 0.152344 70.09375 0.0898438 71.320312 C 0.03125 72.546875 0 73.773438 0 75 C 0 76.226562 0.03125 77.453125 0.0898438 78.679688 C 0.152344 79.90625 0.242188 81.128906 0.359375 82.351562 C 0.480469 83.574219 0.632812 84.789062 0.8125 86.003906 C 0.992188 87.21875 1.203125 88.429688 1.441406 89.632812 C 1.679688 90.835938 1.949219 92.03125 2.246094 93.222656 C 2.546875 94.414062 2.875 95.597656 3.230469 96.769531 C 3.585938 97.945312 3.96875 99.109375 4.382812 100.265625 C 4.796875 101.421875 5.238281 102.566406 5.710938 103.703125 C 6.179688 104.835938 6.675781 105.957031 7.199219 107.066406 C 7.726562 108.175781 8.277344 109.273438 8.855469 110.355469 C 9.433594 111.4375 10.039062 112.503906 10.671875 113.558594 C 11.300781 114.609375 11.957031 115.648438 12.640625 116.667969 C 13.320312 117.6875 14.027344 118.691406 14.757812 119.675781 C 15.492188 120.664062 16.246094 121.628906 17.023438 122.578125 C 17.804688 123.527344 18.605469 124.457031 19.429688 125.367188 C 20.253906 126.277344 21.097656 127.164062 21.96875 128.03125 C 22.835938 128.902344 23.722656 129.746094 24.632812 130.570312 C 25.542969 131.394531 26.472656 132.195312 27.421875 132.976562 C 28.371094 133.753906 29.335938 134.507812 30.324219 135.242188 C 31.308594 135.972656 32.3125 136.679688 33.332031 137.359375 C 34.351562 138.042969 35.390625 138.699219 36.441406 139.328125 C 37.496094 139.960938 38.5625 140.566406 39.644531 141.144531 C 40.726562 141.722656 41.824219 142.273438 42.933594 142.800781 C 44.042969 143.324219 45.164062 143.820312 46.296875 144.289062 C 47.433594 144.761719 48.578125 145.203125 49.734375 145.617188 C 50.890625 146.027344 52.054688 146.414062 53.230469 146.769531 C 54.402344 147.125 55.585938 147.453125 56.777344 147.753906 C 57.96875 148.050781 59.164062 148.320312 60.367188 148.558594 C 61.570312 148.796875 62.78125 149.007812 63.996094 149.1875 C 65.210938 149.367188 66.425781 149.519531 67.648438 149.640625 C 68.871094 149.757812 70.09375 149.847656 71.320312 149.910156 C 72.546875 149.96875 73.773438 150 75 150 C 76.226562 150 77.453125 149.96875 78.679688 149.910156 C 79.90625 149.847656 81.128906 149.757812 82.351562 149.640625 C 83.574219 149.519531 84.789062 149.367188 86.003906 149.1875 C 87.21875 149.007812 88.429688 148.796875 89.632812 148.558594 C 90.835938 148.320312 92.03125 148.050781 93.222656 147.753906 C 94.414062 147.453125 95.597656 147.125 96.769531 146.769531 C 97.945312 146.414062 99.109375 146.027344 100.265625 145.617188 C 101.421875 145.203125 102.566406 144.761719 103.703125 144.289062 C 104.835938 143.820312 105.957031 143.324219 107.066406 142.800781 C 108.175781 142.273438 109.273438 141.722656 110.355469 141.144531 C 111.4375 140.566406 112.503906 139.960938 113.558594 139.328125 C 114.609375 138.699219 115.648438 138.042969 116.667969 137.359375 C 117.6875 136.679688 118.691406 135.972656 119.675781 135.242188 C 120.664062 134.507812 121.628906 133.753906 122.578125 132.976562 C 123.527344 132.195312 124.457031 131.394531 125.367188 130.570312 C 126.277344 129.746094 127.164062 128.902344 128.03125 128.03125 C 128.902344 127.164062 129.746094 126.277344 130.570312 125.367188 C 131.394531 124.457031 132.195312 123.527344 132.976562 122.578125 C 133.753906 121.628906 134.507812 120.664062 135.242188 119.675781 C 135.972656 118.691406 136.679688 117.6875 137.359375 116.667969 C 138.042969 115.648438 138.699219 114.609375 139.328125 113.558594 C 139.960938 112.503906 140.566406 111.4375 141.144531 110.355469 C 141.722656 109.273438 142.273438 108.175781 142.800781 107.066406 C 143.324219 105.957031 143.820312 104.835938 144.289062 103.703125 C 144.761719 102.566406 145.203125 101.421875 145.617188 100.265625 C 146.027344 99.109375 146.414062 97.945312 146.769531 96.769531 C 147.125 95.597656 147.453125 94.414062 147.753906 93.222656 C 148.050781 92.03125 148.320312 90.835938 148.558594 89.632812 C 148.796875 88.429688 149.007812 87.21875 149.1875 86.003906 C 149.367188 84.789062 149.519531 83.574219 149.640625 82.351562 C 149.757812 81.128906 149.847656 79.90625 149.910156 78.679688 C 149.96875 77.453125 150 76.226562 150 75 C 150 73.773438 149.96875 72.546875 149.910156 71.320312 C 149.847656 70.09375 149.757812 68.871094 149.636719 67.648438 C 149.515625 66.425781 149.367188 65.210938 149.1875 63.996094 C 149.007812 62.78125 148.796875 61.574219 148.558594 60.367188 C 148.316406 59.164062 148.046875 57.96875 147.75 56.777344 C 147.453125 55.585938 147.125 54.402344 146.769531 53.230469 C 146.410156 52.054688 146.027344 50.890625 145.613281 49.734375 C 145.199219 48.578125 144.757812 47.433594 144.289062 46.300781 C 143.820312 45.167969 143.320312 44.042969 142.796875 42.933594 C 142.273438 41.824219 141.71875 40.730469 141.140625 39.648438 C 140.5625 38.566406 139.957031 37.496094 139.328125 36.445312 C 138.695312 35.390625 138.039062 34.355469 137.355469 33.335938 C 136.675781 32.3125 135.96875 31.3125 135.238281 30.324219 C 134.507812 29.339844 133.75 28.371094 132.972656 27.421875 C 132.195312 26.472656 131.394531 25.546875 130.570312 24.636719 C 129.746094 23.726562 128.898438 22.835938 128.03125 21.96875 C 127.164062 21.101562 126.273438 20.253906 125.363281 19.429688 C 124.453125 18.605469 123.527344 17.804688 122.578125 17.027344 C 121.628906 16.25 120.660156 15.492188 119.675781 14.761719 C 118.6875 14.03125 117.6875 13.324219 116.664062 12.644531 C 115.644531 11.960938 114.609375 11.304688 113.554688 10.671875 C 112.503906 10.042969 111.433594 9.4375 110.351562 8.859375 C 109.269531 8.28125 108.175781 7.726562 107.066406 7.203125 C 105.957031 6.679688 104.832031 6.179688 103.699219 5.710938 C 102.566406 5.242188 101.421875 4.800781 100.265625 4.386719 C 99.109375 3.972656 97.945312 3.589844 96.769531 3.230469 C 95.597656 2.875 94.414062 2.546875 93.222656 2.25 C 92.03125 1.953125 90.835938 1.683594 89.632812 1.441406 C 88.425781 1.203125 87.21875 0.992188 86.003906 0.8125 C 84.789062 0.632812 83.574219 0.484375 82.351562 0.363281 C 81.128906 0.242188 79.90625 0.152344 78.679688 0.0898438 C 77.453125 0.03125 76.226562 0 75 0 Z M 99.234375 55.242188 C 99.234375 56.035156 99.195312 56.828125 99.117188 57.617188 C 99.039062 58.40625 98.921875 59.191406 98.769531 59.96875 C 98.613281 60.75 98.421875 61.515625 98.191406 62.277344 C 97.960938 63.035156 97.695312 63.78125 97.390625 64.515625 C 97.085938 65.25 96.746094 65.964844 96.371094 66.667969 C 96 67.367188 95.589844 68.046875 95.148438 68.707031 C 94.710938 69.367188 94.238281 70.003906 93.734375 70.617188 C 93.230469 71.230469 92.699219 71.816406 92.136719 72.378906 C 91.574219 72.941406 90.988281 73.472656 90.375 73.976562 C 89.761719 74.480469 89.125 74.953125 88.464844 75.390625 C 87.804688 75.832031 87.125 76.242188 86.425781 76.613281 C 85.722656 76.988281 85.007812 77.328125 84.273438 77.632812 C 83.539062 77.9375 82.792969 78.203125 82.035156 78.433594 C 81.273438 78.664062 80.507812 78.855469 79.726562 79.011719 C 78.949219 79.164062 78.164062 79.28125 77.375 79.359375 C 76.585938 79.4375 75.792969 79.476562 75 79.476562 C 74.207031 79.476562 73.414062 79.4375 72.625 79.359375 C 71.835938 79.28125 71.050781 79.164062 70.273438 79.011719 C 69.492188 78.855469 68.722656 78.664062 67.964844 78.433594 C 67.207031 78.203125 66.460938 77.9375 65.726562 77.632812 C 64.992188 77.328125 64.277344 76.988281 63.574219 76.613281 C 62.875 76.242188 62.195312 75.832031 61.535156 75.390625 C 60.875 74.953125 60.238281 74.480469 59.625 73.976562 C 59.011719 73.472656 58.425781 72.941406 57.863281 72.378906 C 57.300781 71.816406 56.769531 71.230469 56.265625 70.617188 C 55.761719 70.003906 55.289062 69.367188 54.851562 68.707031 C 54.410156 68.046875 54 67.367188 53.628906 66.667969 C 53.253906 65.964844 52.914062 65.25 52.609375 64.515625 C 52.304688 63.78125 52.039062 63.035156 51.808594 62.277344 C 51.578125 61.515625 51.386719 60.75 51.230469 59.96875 C 51.078125 59.191406 50.960938 58.40625 50.882812 57.617188 C 50.804688 56.828125 50.765625 56.035156 50.765625 55.242188 C 52.101562 23.109375 97.898438 23.109375 99.234375 55.242188 Z M 120.304688 110.109375 C 119.679688 111.421875 118.878906 112.621094 117.914062 113.710938 C 116.945312 114.796875 115.84375 115.726562 114.613281 116.5 C 113.378906 117.273438 112.0625 117.859375 110.664062 118.261719 C 109.265625 118.660156 107.839844 118.859375 106.382812 118.851562 L 43.617188 118.851562 C 42.160156 118.847656 40.730469 118.644531 39.332031 118.242188 C 37.933594 117.835938 36.617188 117.246094 35.382812 116.46875 C 34.152344 115.691406 33.050781 114.761719 32.078125 113.671875 C 31.109375 112.585938 30.308594 111.386719 29.675781 110.074219 C 29.046875 108.761719 28.609375 107.386719 28.363281 105.949219 C 28.121094 104.511719 28.082031 103.070312 28.246094 101.621094 C 28.40625 100.175781 28.769531 98.777344 29.324219 97.429688 C 29.882812 96.085938 30.617188 94.84375 31.523438 93.703125 C 34.726562 89.832031 38.421875 86.511719 42.609375 83.734375 C 46.796875 80.960938 51.296875 78.855469 56.109375 77.414062 C 57.410156 78.539062 58.796875 79.535156 60.277344 80.410156 C 61.753906 81.285156 63.300781 82.023438 64.910156 82.621094 C 66.519531 83.21875 68.171875 83.667969 69.863281 83.972656 C 71.554688 84.273438 73.257812 84.425781 74.976562 84.421875 L 75.070312 84.421875 C 76.785156 84.421875 78.484375 84.269531 80.171875 83.96875 C 81.859375 83.664062 83.503906 83.210938 85.113281 82.613281 C 86.71875 82.015625 88.257812 81.28125 89.734375 80.40625 C 91.207031 79.53125 92.59375 78.535156 93.890625 77.414062 C 98.703125 78.855469 103.203125 80.960938 107.390625 83.734375 C 111.578125 86.511719 115.273438 89.832031 118.476562 93.703125 C 119.394531 94.839844 120.132812 96.085938 120.695312 97.4375 C 121.257812 98.785156 121.617188 100.1875 121.78125 101.640625 C 121.941406 103.09375 121.898438 104.539062 121.648438 105.980469 C 121.394531 107.421875 120.949219 108.796875 120.304688 110.109375 Z M 120.304688 110.109375 " fill-opacity="1" fill-rule="nonzero"/><g clip-path="url(#f8d8aa214b)"><g clip-path="url(#b20ccff991)"><g transform="matrix(1, 0, 0, 1, 0, -0.000000000000007527)"><g clip-path="url(#4adb748982)"><g clip-path="url(#2721e57b3b)"><g clip-path="url(#6f8c1834dc)"><path fill="#904ddb" d="M -39.910156 -28.742188 L 89.5 -28.742188 L 89.5 35.089844 L -39.910156 35.089844 Z M -39.910156 -28.742188 " fill-opacity="1" fill-rule="nonzero"/></g></g></g></g></g></g><g clip-path="url(#317a480735)"><g clip-path="url(#34b578341b)"><g transform="matrix(1, 0, 0, 1, 0, 15)"><g clip-path="url(#ca4811cf51)"><g clip-path="url(#83c9b29197)"><g clip-path="url(#47ad6fa165)"><path fill="#904ddb" d="M -100.609375 0 L 28.800781 0 L 28.800781 63.832031 L -100.609375 63.832031 Z M -100.609375 0 " fill-opacity="1" fill-rule="nonzero"/></g></g></g></g></g></g><g clip-path="url(#0f663f3bd7)"><g clip-path="url(#081d48981d)"><g transform="matrix(1, 0, 0, 1, 0, 122)"><g clip-path="url(#2dc7c99cc7)"><g clip-path="url(#b4d2905f21)"><g clip-path="url(#5e50a9d725)"><path fill="#904ddb" d="M -57.472656 0.96875 L 71.9375 0.96875 L 71.9375 64.800781 L -57.472656 64.800781 Z M -57.472656 0.96875 " fill-opacity="1" fill-rule="nonzero"/></g></g></g></g></g></g><g clip-path="url(#e254233add)"><g clip-path="url(#e5451581c5)"><g transform="matrix(1, 0, 0, 1, 0, 35)"><g clip-path="url(#777e9e4cd8)"><g clip-path="url(#cffadc2428)"><g clip-path="url(#754b8eaa26)"><path fill="#904ddb" d="M -96.230469 0.0898438 L 24.964844 0.0898438 L 24.964844 119.882812 L -96.230469 119.882812 Z M -96.230469 0.0898438 " fill-opacity="1" fill-rule="nonzero"/></g></g></g></g></g></g><g clip-path="url(#7422282dbf)"><g clip-path="url(#95057456bf)"><g transform="matrix(1, 0, 0, 1, 76, -0.000000000000007527)"><g clip-path="url(#1217b6e3bd)"><g clip-path="url(#98344b3980)"><g clip-path="url(#cb23f57c69)"><path fill="#904ddb" d="M 0.980469 -28.742188 L 130.390625 -28.742188 L 130.390625 35.089844 L 0.980469 35.089844 Z M 0.980469 -28.742188 " fill-opacity="1" fill-rule="nonzero"/></g></g></g></g></g></g><g clip-path="url(#a4b3b6716e)"><g clip-path="url(#4b0c708b2b)"><g transform="matrix(1, 0, 0, 1, 106, 22)"><g clip-path="url(#4ca5dcd373)"><g clip-path="url(#1e699a61aa)"><g clip-path="url(#7af2a5fc42)"><path fill="#904ddb" d="M 0.105469 0.238281 L 129.515625 0.238281 L 129.515625 64.070312 L 0.105469 64.070312 Z M 0.105469 0.238281 " fill-opacity="1" fill-rule="nonzero"/></g></g></g></g></g></g><g clip-path="url(#619b783de0)"><g clip-path="url(#41f3db6d0b)"><g transform="matrix(1, 0, 0, 1, 127, 71)"><g clip-path="url(#549f11b2e4)"><g clip-path="url(#d1cccdeb0f)"><g clip-path="url(#9c6c213bf3)"><path fill="#904ddb" d="M 0.347656 0.167969 L 129.757812 0.167969 L 129.757812 64 L 0.347656 64 Z M 0.347656 0.167969 " fill-opacity="1" fill-rule="nonzero"/></g></g></g></g></g></g><g clip-path="url(#ae167c04f2)"><g clip-path="url(#78b69832e1)"><g transform="matrix(1, 0, 0, 1, 65, 118)"><g clip-path="url(#16753d367e)"><g clip-path="url(#a016bc49df)"><g clip-path="url(#6d891ed398)"><path fill="#904ddb" d="M 0.59375 0.0820312 L 130.003906 0.0820312 L 130.003906 63.917969 L 0.59375 63.917969 Z M 0.59375 0.0820312 " fill-opacity="1" fill-rule="nonzero"/></g></g></g></g></g></g></svg>